{"title":"18+ Sisters 2015 UNRATED Movies HDRip XviD ESubs New +Sample ☻rD","uid":13720193,"size":738946434,"categoryP":"video","categoryS":"movies","magnet":"?xt=urn:btih:fba28948da7c229031f3411d8133574db453e211&amp;dn=18%2B+Sisters+2015+UNRATED+Movies+HDRip+XviD+ESubs+New+%2BSample+%E2%98%BBrD&amp;tr=udp%3A%2F%2Ftracker.leechers-paradise.org%3A6969&amp;tr=udp%3A%2F%2Fzer0day.ch%3A1337&amp;tr=udp%3A%2F%2Fopen.demonii.com%3A1337&amp;tr=udp%3A%2F%2Ftracker.coppersurfer.tk%3A6969&amp;tr=udp%3A%2F%2Fexodus.desync.com%3A6969","seeders":0,"leechers":5,"uploader":"basicssom","files":3,"time":1456935054,"description":"----------------------------------------------------------------\r\n18+ Sisters 2015 UNRATED English Movies HDRip XviD ESubs AAC New Source with Sample ~ ☻rDX☻\r\n\r\nSCREEN SHOTS &amp; POSTER:\r\n  \nhttp://mobileshosting.com/2016/3/datting/index.htm  \nhttp://mobileshosting.com/2016/3/datting/1.html  \nhttp://mobileshosting.com/2016/3/datting/2.html  \nhttp://mobileshosting.com/2016/3/datting/3.html  \nhttp://mobileshosting.com/2016/3/datting/4.html  \nhttp://mobileshosting.com/2016/3/datting/5.html  \nhttp://mobileshosting.com/2016/3/datting/6.html  \nhttp://mobileshosting.com/2016/3/datting/7.html  \nhttp://mobileshosting.com/2016/3/datting/8.html  \nhttp://mobileshosting.com/2016/3/datting/9.html  \nhttp://mobileshosting.com/2016/3/datting/10.html\r\n\r\nFormat                                   : Matroska\r\nFormat version                           : Version 4 / Version 2\r\nFile size                                : 693 MiB\r\nDuration                                 : 2h 2mn\r\nOverall bit rate                         : 793 Kbps\r\nMovie name                               : 18+ Sisters 2015 UNRATED English Movies HDRip XviD ESubs AAC New Source ☻rDX☻\r\n\r\nVideo\r\nID                                       : 1\r\nFormat                                   : MPEG-4 Visual\r\nFormat profile                           : Advanced   \r\nFormat settings, BVOP                    : Yes\r\nFormat settings, QPel                    : No\r\nFormat settings, GMC                     : No warppoints\r\nFormat settings, Matrix                  : Default (H.263)\r\nCodec ID                                 : V_MS/VFW/FOURCC / XVID\r\nCodec ID/Hint                            : XviD\r\nDuration                                 : 2h 2mn\r\nBit rate                                 : 665 Kbps\r\nWidth                                    : 640 pixels\r\nHeight                                   : 272 pixels\r\nDisplay aspect ratio                     : 2.35:1\r\nFrame rate mode                          : Constant\r\nFrame rate                               : 23.976 fps\r\nColor space                              : YUV\r\nChroma subsampling                       : 4:2:0\r\nBit depth                                : 8 bits\r\nScan type                                : Progressive\r\nCompression mode                         : Lossy\r\nBits/(Pixel*Frame)                       : 0.159\r\nStream size                              : 582 MiB (84%)\r\nTitle                                    : ☻rDX☻\r\nWriting library                          : XviD 65\r\nDefault                                  : Yes\r\nForced                                   : No\r\n\r\nAudio\r\nID                                       : 2\r\nFormat                                   : MPEG Audio\r\nFormat version                           : Version 1\r\nFormat profile                           : Layer 3\r\nMode                                     : Joint stereo\r\nMode extension                           : MS Stereo\r\nCodec ID                                 : A_MPEG/L3\r\nCodec ID/Hint                            : MP3\r\nDuration                                 : 2h 2mn\r\nBit rate mode                            : Constant\r\nBit rate                                 : 112 Kbps\r\nChannel(s)                               : 2 channels\r\nSampling rate                            : 48.0 KHz\r\nCompression mode                         : Lossy\r\nStream size                              : 98.0 MiB (14%)\r\nTitle                                    : ☻rDX☻\r\nWriting library                          : LAME3.99r\r\nEncoding settings                        : -m j -V 4 -q 3 -lowpass 15.6 -b 112\r\nDefault                                  : Yes\r\nForced                                   : No\r\n\r\nIMDB                                      \nhttp://www.imdb.com/title/tt1850457/","torrent":{"xt":"urn:btih:fba28948da7c229031f3411d8133574db453e211","amp;dn":"18%2B+Sisters+2015+UNRATED+Movies+HDRip+XviD+ESubs+New+%2BSample+%E2%98%BBrD","amp;tr":["udp%3A%2F%2Ftracker.leechers-paradise.org%3A6969","udp%3A%2F%2Fzer0day.ch%3A1337","udp%3A%2F%2Fopen.demonii.com%3A1337","udp%3A%2F%2Ftracker.coppersurfer.tk%3A6969","udp%3A%2F%2Fexodus.desync.com%3A6969"],"infoHash":"fba28948da7c229031f3411d8133574db453e211","infoHashBuffer":{"type":"Buffer","data":[251,162,137,72,218,124,34,144,49,243,65,29,129,51,87,77,180,83,226,17]},"announce":[],"urlList":[]}}